# xmcd
#
# Track frame offsets:
# 150
# 9840
# 22120
# 46180
# 60102
# 73992
# 95372
# 109512
# 139557
# 161197
# 185640
# 210615
# 232830
# 266540
#
# Disc length: 3695 seconds
#
#
# Revision: 0
# Processed by: cddbd v1.5.1PL0 Copyright (c) Steve Scherf et al.
# Submitted via: FreeRIP 2.941 
#
DISCID=b30e6d0e
DTITLE=Steve Ray Vaughan and Double Trouble - 
DYEAR=1900
DGENRE=Blues
TTITLE0=Intro
TTITLE1=Scuttle Buttin'
TTITLE2=Testify
TTITLE3=Love Struck Baby
TTITLE4=Honey Bee
TTITLE5=Cold Shot
TTITLE6=Letter To My Girlfriend
TTITLE7=Dirty Pool
TTITLE8=Pride And Joy
TTITLE9=The Things That I Used To Do
TTITLE10=C.O.D.
TTITLE11=Iced Over
TTITLE12=Lenny
TTITLE13=Rude Mood
EXTD=
EXTT0=
EXTT1=
EXTT2=
EXTT3=
EXTT4=
EXTT5=
EXTT6=
EXTT7=
EXTT8=
EXTT9=
EXTT10=
EXTT11=
EXTT12=
EXTT13=
PLAYORDER=
